<svg xmlns="http://www.w3.org/2000/svg"  viewBox="0 0 48 48" width="48px" height="48px" baseProfile="basic"><linearGradient id="SFmU318YOvWhVbTJgAveHa" x1="12.643" x2="31.433" y1="-7.634" y2="44.703" gradientUnits="userSpaceOnUse"><stop offset="0" stop-color="#0077d2"/><stop offset="1" stop-color="#0b59a2"/></linearGradient><path fill="url(#SFmU318YOvWhVbTJgAveHa)" d="M34,42H14c-4.418,0-8-3.582-8-8V14c0-4.418,3.582-8,8-8h20c4.418,0,8,3.582,8,8v20	C42,38.418,38.418,42,34,42z"/><path fill="#fff" d="M7.968,20.208v7.75H9.27v-3.017c0,0,3.357,0.603,3.357-2.338	C12.626,19.661,9.976,19.944,7.968,20.208z M9.251,23.848v-2.64c0,0,2.112-0.434,2.112,1.32	C11.363,24.131,9.251,23.848,9.251,23.848z"/><path fill="#fff" d="M16.03,20.053h-1.603l-2.282,7.906h1.358l0.641-2.282h2.15l0.717,2.282h1.358L16.03,20.053z M14.295,24.602l0.886-3.442l0.905,3.442H14.295z"/><path fill="#fff" d="M33.729,20.053h-1.603l-2.282,7.906h1.358l0.641-2.282h2.15l0.717,2.282h1.358L33.729,20.053z M31.994,24.602l0.886-3.442l0.905,3.442H31.994z"/><path fill="#fff" d="M23.154,20.43l-0.398,1.138c-0.823-0.562-2.509-0.507-2.509,0.507c0,1.453,2.865,0.946,3.167,3.304	c0.261,2.04-2.084,3.276-4.551,2.084l0.315-1.234c0.902,0.576,3.02,0.871,2.911-0.661c-0.087-1.214-3.103-1.04-3.103-3.315	C18.987,19.8,21.838,19.539,23.154,20.43z"/><path fill="#fff" d="M29.467,20.352l-0.35,1.134c-1.256-0.48-3.765-0.446-3.765,2.46c0,3.14,2.785,2.956,3.751,2.522	c0.056,0.266,0.252,1.162,0.252,1.162C27.787,28.414,24,28.204,24,24.201C24,19.783,27.843,19.61,29.467,20.352z"/><polygon fill="#fff" points="36.618,19.962 36.618,27.93 40.724,27.93 40.724,26.705 37.848,26.705 37.848,19.962"/></svg>